<svg width="1200" height="720" viewBox="0 0 1200 720" fill="none" xmlns="http://www.w3.org/2000/svg">
  <rect width="1200" height="720" rx="48" fill="#FFF7EA"/>
  <rect x="60" y="66" width="1080" height="588" rx="40" fill="url(#paint0_linear_3_2)"/>
  <path d="M173 450C278 348.5 369 311.5 460 326C550.5 340.5 635.5 408.5 711.5 428C787.5 447.5 871.5 418.5 947 375.5C1022.5 332.5 1077.5 275 1120 236V654H60V548.5C83.5 517 118.5 502.5 173 450Z" fill="white" fill-opacity="0.18"/>
  <rect x="132" y="150" width="188" height="24" rx="12" fill="white" fill-opacity="0.82"/>
  <rect x="132" y="194" width="508" height="28" rx="14" fill="white"/>
  <rect x="132" y="240" width="338" height="24" rx="12" fill="white" fill-opacity="0.82"/>
  <text x="132" y="320" fill="white" font-family="Arial, sans-serif" font-size="58" font-weight="700">Slow travel. Local memory. Real connection.</text>
  <defs>
    <linearGradient id="paint0_linear_3_2" x1="60" y1="66" x2="1140" y2="654" gradientUnits="userSpaceOnUse">
      <stop stop-color="#D39C3E"/>
      <stop offset="1" stop-color="#C2185B"/>
    </linearGradient>
  </defs>
</svg>
