<svg width="220" height="184" viewBox="0 0 220 184" fill="none" xmlns="http://www.w3.org/2000/svg">
  <rect width="220" height="184" fill="#EED0D5"/>
  <rect x="18" y="6" width="144" height="144" rx="28" fill="none" stroke="#C2185B" stroke-width="3"/>
  <path d="M90 20V38" stroke="#E35A8A" stroke-width="2.5" stroke-linecap="round"/>
  <path d="M90 114V132" stroke="#E35A8A" stroke-width="2.5" stroke-linecap="round"/>
  <path d="M30 78H48" stroke="#E35A8A" stroke-width="2.5" stroke-linecap="round"/>
  <path d="M132 78H150" stroke="#E35A8A" stroke-width="2.5" stroke-linecap="round"/>
  <path d="M43 45L56 53" stroke="#E35A8A" stroke-width="2.5" stroke-linecap="round"/>
  <path d="M123 101L136 109" stroke="#E35A8A" stroke-width="2.5" stroke-linecap="round"/>
  <path d="M43 109L56 101" stroke="#E35A8A" stroke-width="2.5" stroke-linecap="round"/>
  <path d="M123 53L136 45" stroke="#E35A8A" stroke-width="2.5" stroke-linecap="round"/>
  <circle cx="90" cy="78" r="42" fill="#F8DDE4" stroke="#E35A8A" stroke-width="2"/>

  <ellipse cx="90" cy="60" rx="10" ry="22" fill="#F8C9D6" stroke="#D7487F" stroke-width="2" transform="rotate(0 90 60)"/>
  <ellipse cx="90" cy="96" rx="10" ry="22" fill="#F8C9D6" stroke="#D7487F" stroke-width="2" transform="rotate(0 90 96)"/>
  <ellipse cx="73" cy="69" rx="10" ry="22" fill="#F8C9D6" stroke="#D7487F" stroke-width="2" transform="rotate(-55 73 69)"/>
  <ellipse cx="107" cy="69" rx="10" ry="22" fill="#F8C9D6" stroke="#D7487F" stroke-width="2" transform="rotate(55 107 69)"/>
  <ellipse cx="73" cy="87" rx="10" ry="22" fill="#F8C9D6" stroke="#D7487F" stroke-width="2" transform="rotate(55 73 87)"/>
  <ellipse cx="107" cy="87" rx="10" ry="22" fill="#F8C9D6" stroke="#D7487F" stroke-width="2" transform="rotate(-55 107 87)"/>

  <circle cx="90" cy="78" r="13" fill="#FCE4EC" stroke="#C2185B" stroke-width="2.5"/>
  <circle cx="90" cy="78" r="5.5" fill="#7B1FA2"/>

  <circle cx="131" cy="33" r="4.8" fill="#D7487F"/>
  <circle cx="138" cy="24" r="4.8" fill="#D7487F"/>
  <path d="M126 39L117 49" stroke="#D7487F" stroke-width="2.5" stroke-linecap="round"/>

  <text x="92" y="160" text-anchor="middle" fill="#C2185B" font-size="26" font-family="Georgia, 'Times New Roman', serif" font-weight="700">Vybe</text>
  <text x="58" y="172" fill="#A08592" font-size="7.5" font-family="Arial, sans-serif" font-weight="700" letter-spacing="0.8">CONNECT</text>
  <text x="95" y="172" fill="#A08592" font-size="7.5" font-family="Arial, sans-serif" font-weight="700" letter-spacing="0.8">CREATE</text>
  <text x="131" y="172" fill="#A08592" font-size="7.5" font-family="Arial, sans-serif" font-weight="700" letter-spacing="0.8">FEEL</text>
</svg>
